<?xml version="1.0" standalone="no"?>
<!DOCTYPE svg PUBLIC "-//W3C//DTD SVG 1.1//EN" "http://www.w3.org/Graphics/SVG/1.1/DTD/svg11.dtd" >
<svg xmlns="http://www.w3.org/2000/svg" xmlns:xlink="http://www.w3.org/1999/xlink" version="1.1">
<metadata></metadata>
<defs>
<font id="europeextendedcbold_italic" horiz-adv-x="1763" >
<font-face units-per-em="2048" ascent="1597" descent="-451" />
<missing-glyph horiz-adv-x="708" />
<glyph horiz-adv-x="0" />
<glyph horiz-adv-x="682" />
<glyph unicode=" "  horiz-adv-x="708" />
<glyph unicode="&#x09;" horiz-adv-x="708" />
<glyph unicode="&#xa0;" horiz-adv-x="708" />
<glyph unicode="!" horiz-adv-x="681" d="M55 0l60 340h340l-60 -340h-340zM145 512l160 909h340l-160 -909h-340z" />
<glyph unicode="&#x22;" horiz-adv-x="729" d="M98 985l37 465h227l-129 -465h-135zM426 985l37 465h227l-129 -465h-135z" />
<glyph unicode="#" horiz-adv-x="1296" d="M-18 612l63 164h283l86 205h-281l76 164h274l113 266h162l-115 -266h254l117 266h160l-115 -266h266l-65 -164h-273l-86 -205h268l-69 -164h-269l-116 -276h-164l121 276h-254l-125 -276h-162l125 276h-274zM487 776h254l88 205h-256z" />
<glyph unicode="$" horiz-adv-x="1857" d="M82 301q0 42 10 107h340q0 -79 48.5 -109.5t146.5 -30.5h145l57 328h-186q-167 0 -261 26.5t-131.5 80t-37.5 145.5q0 73 18 172q24 131 85.5 214.5t188 131t322.5 47.5h146l22 129h222l-23 -129h162q236 0 354.5 -70t118.5 -231q0 -47 -8 -94h-340q0 27 -4 44t-18 34.5 t-40.5 27t-73.5 15.5t-116 6h-82l-49 -281h164q113 0 185 -5t136 -20.5t98 -44.5t53 -76t19 -116t-18 -168q-23 -128 -69 -212t-127 -133.5t-187 -69t-262 -19.5h-146l-31 -182h-221l31 182h-182q-240 0 -349.5 73.5t-109.5 227.5zM565 965q0 -49 21.5 -75t60.5 -26h230 l49 281h-230q-48 0 -89.5 -52.5t-41.5 -127.5zM993 268h146q58 0 101 8.5t81 29t58 61.5t20 100q0 74 -49 101.5t-154 27.5h-145z" />
<glyph unicode="%" horiz-adv-x="2490" d="M96 772q0 39 10 107l48 260q31 174 107.5 238.5t260.5 64.5h332q144 0 206 -44.5t62 -152.5q0 -38 -10 -106l-47 -260q-31 -162 -109 -225.5t-249 -63.5h-332q-153 0 -216 38t-63 144zM313 866q0 -49 31 -68.5t111 -19.5h233q95 0 130 26.5t50 113.5l31 180q8 54 8 67 q0 51 -30 69.5t-105 18.5h-233q-97 0 -134.5 -31t-52.5 -120l-33 -180q-6 -30 -6 -56zM786 -55l695 1558h207l-695 -1558h-207zM1343 182q0 32 11 107l47 260q31 174 107.5 238.5t260.5 64.5h332q144 0 206.5 -44.5t62.5 -152.5q0 -31 -11 -106l-47 -260 q-31 -162 -109 -225.5t-249 -63.5h-332q-153 0 -216 38t-63 144zM1561 276q0 -50 31 -69t110 -19h233q95 0 130.5 26.5t50.5 113.5l30 180q8 54 8 67q0 51 -30 70t-105 19h-233q-97 0 -134.5 -31.5t-52.5 -120.5l-32 -180q-6 -30 -6 -56z" />
<glyph unicode="&#x26;" horiz-adv-x="2023" d="M55 377q0 215 111.5 342t304.5 174q-63 41 -63 135q0 391 495 391h496q105 0 184.5 -24t123 -58.5t70.5 -83t34.5 -87.5t7.5 -81q0 -23 -7 -65l-4 -10h-340q0 33 -5.5 53.5t-23 38.5t-53.5 26.5t-94 8.5h-362q-93 0 -136.5 -21.5t-43.5 -87.5q0 -58 96 -119l635 -397 q4 4 12 16t29 80.5t39 173.5h340q-15 -88 -37.5 -164.5t-43 -122.5t-39 -79t-29.5 -46l-11 -14l194 -127l-188 -225l-207 127q-5 -5 -14.5 -14t-45 -31.5t-76.5 -40t-109 -31.5t-142 -14h-676q-191 0 -306.5 95t-115.5 282zM401 440q0 -74 55 -115.5t189 -41.5h348 q94 0 156.5 10.5t78.5 20.5l15 10l-602 372q-94 0 -167 -72t-73 -184z" />
<glyph unicode="'" horiz-adv-x="509" d="M152 985l36 465h228l-127 -465h-137z" />
<glyph unicode="(" horiz-adv-x="673" d="M-12 129q0 50 14 139l133 762q18 100 53 181.5t82.5 137.5t103 96.5t121 63t130 33t135.5 10.5l-49 -282q-134 0 -204.5 -55t-94.5 -187l-133 -760q-7 -35 -7 -57q0 -170 222 -170l-50 -283q-82 0 -148.5 11t-125 38t-98 69t-62 106t-22.5 147z" />
<glyph unicode=")" horiz-adv-x="673" d="M-78 -242l49 283q116 0 196 56.5t101 170.5l133 760q9 44 9 76q0 89 -54.5 127.5t-167.5 38.5l50 282q75 0 139 -11t123.5 -38t101 -69.5t66 -110t24.5 -154.5q0 -50 -14 -139l-133 -762q-21 -116 -63 -204.5t-98.5 -146t-131.5 -93.5t-155 -51t-175 -15z" />
<glyph unicode="*" horiz-adv-x="704" d="M49 985q0 30 25.5 54t70.5 34q34 9 82.5 22t74.5 19.5l30 7.5l-174 37q-31 6 -49.5 24t-18.5 40q0 28 7 46.5t21 26.5t26 10.5t30 2.5q37 0 68 -39q22 -29 49 -62t43 -51l16 -18q4 -1 -3.5 35t-17.5 87t-10 76q0 41 29 69t58 28q28 0 44.5 -16t16.5 -44q0 -26 -14 -59 l-84 -176q67 67 143 137q45 39 82 39q28 0 44.5 -19t16.5 -41q0 -30 -26 -55t-70 -35l-182 -43q84 -21 176 -39q35 -8 50 -27.5t15 -39.5q0 -32 -25 -59t-56 -27q-37 0 -70 41q-22 31 -47.5 64.5t-39.5 50.5l-15 18q2 -32 7 -81t8 -82t3 -38q0 -47 -27.5 -71.5t-60.5 -24.5 q-26 0 -41.5 15.5t-15.5 41.5q0 29 14 62q56 118 86 172q-22 -22 -148 -135q-39 -39 -79 -39q-27 0 -44.5 17t-17.5 44z" />
<glyph unicode="+" horiz-adv-x="1155" d="M113 520l49 283h295l53 297h276l-53 -297h322l-49 -283h-322l-53 -295h-277l54 295h-295z" />
<glyph unicode="," horiz-adv-x="681" d="M31 -422l35 189q81 0 119.5 24.5t50.5 89.5l10 64h-92l59 340h340l-59 -340q-12 -71 -28.5 -124t-36 -93t-49 -66t-61 -43t-78.5 -26t-94 -12t-116 -3z" />
<glyph unicode="-" horiz-adv-x="1101" d="M113 520l49 283h835l-49 -283h-835z" />
<glyph unicode="." horiz-adv-x="630" d="M121 0l59 340h340l-59 -340h-340z" />
<glyph unicode="/" horiz-adv-x="692" d="M-131 -182l749 1673h228l-750 -1673h-227z" />
<glyph unicode="0" horiz-adv-x="1875" d="M59 332q0 68 15 153l78 447q27 148 70.5 243.5t118 155t175.5 83.5t250 24h625q230 0 336 -72.5t106 -257.5q0 -74 -18 -176l-78 -447q-24 -137 -64 -226t-110.5 -148.5t-173 -85t-252.5 -25.5h-625q-238 0 -345.5 78.5t-107.5 253.5zM410 430q0 -84 52 -115.5t181 -31.5 h451q162 0 222.5 47t86.5 192l67 379q11 68 11 96q0 91 -54.5 124.5t-183.5 33.5h-438q-161 0 -226.5 -52.5t-91.5 -203.5l-67 -379q-10 -58 -10 -90z" />
<glyph unicode="1" d="M217 1079l500 342h563l-250 -1421h-340l197 1116h-105l-432 -297z" />
<glyph unicode="2" d="M-12 0l57 324q13 73 34 129.5t64 113t105.5 95t161 66t227.5 34.5l457 24q146 7 207 64t61 182q0 68 -55 94.5t-197 26.5h-238q-63 0 -109.5 -2t-84.5 -9.5t-63 -15t-45.5 -25t-32.5 -33t-22.5 -45.5t-16 -55.5t-13.5 -70.5h-340q13 71 26 124t36 110.5t53 98t75 79 t102 61.5t135.5 37t175.5 14h512q249 0 350.5 -65t101.5 -232q0 -75 -18 -174q-19 -110 -71 -192.5t-130.5 -135t-174.5 -81t-214 -35.5l-447 -27q-103 -6 -158.5 -21t-79.5 -41t-32 -73l-12 -76h1196l-47 -268h-1536z" />
<glyph unicode="3" horiz-adv-x="1794" d="M70 299q0 39 10 104h330q0 -39 7 -63t19 -39t40 -22t57 -9t83 -2h433q55 0 94.5 7.5t76.5 28t56.5 63.5t19.5 108q0 68 -63.5 93.5t-226.5 25.5h-308l45 252h387q126 0 186 51.5t60 169.5q0 62 -42.5 82t-145.5 20h-418q-106 0 -178 -42t-88 -130h-320q11 61 33 118 t66 117.5t103.5 104.5t151.5 72.5t203 28.5h572q72 0 130.5 -7t113.5 -26t92 -49.5t59.5 -79.5t22.5 -113q0 -99 -24 -178.5t-64.5 -129t-89.5 -78t-103 -34.5q26 -7 53.5 -22.5t59 -43.5t51.5 -76.5t20 -108.5q0 -31 -6 -72q-17 -99 -55.5 -173.5t-90 -120.5t-121 -75 t-141.5 -40t-159 -11h-574q-213 0 -315 73t-102 226z" />
<glyph unicode="4" d="M63 305l84 477l906 639h608l-148 -833h193l-51 -283h-191l-53 -305h-340l53 305h-1061zM453 588h721l98 551h-80l-731 -506z" />
<glyph unicode="5" d="M57 307q0 32 11 96h340q0 -84 38 -109.5t150 -25.5h477q110 0 165.5 73.5t55.5 207.5q0 71 -35 105t-112 34h-387q-104 0 -165.5 -18t-92 -52t-51.5 -96h-338l157 899h1487l-47 -268h-1147l-55 -309q34 28 57.5 43t68.5 33.5t109.5 27t153.5 8.5h291q250 0 353.5 -76 t103.5 -241q0 -62 -17 -162q-29 -169 -94.5 -271t-190.5 -154t-323 -52h-510q-227 0 -340 75.5t-113 231.5z" />
<glyph unicode="6" d="M41 299q0 46 8 90l111 633q39 220 175.5 318t424.5 98h497q235 0 344 -73t109 -226q0 -43 -10 -105h-320q0 43 -6 65.5t-29 40.5t-67 23.5t-123 5.5h-352q-157 0 -224 -39.5t-87 -152.5l-33 -186q30 29 53.5 46t68.5 39.5t111.5 33t155.5 10.5h262q104 0 182.5 -8.5 t143.5 -30t107 -56t64.5 -86.5t22.5 -123q0 -42 -10 -104q-19 -107 -41 -181.5t-56.5 -134t-77.5 -95.5t-108 -59.5t-144 -32.5t-189 -9h-498q-233 0 -349 72.5t-116 226.5zM393 395q0 -68 52 -97.5t184 -29.5h352q89 0 147 15t90.5 47.5t45 75.5t12.5 108q0 72 -50.5 104.5 t-176.5 32.5h-359q-161 0 -229 -65t-68 -191z" />
<glyph unicode="7" d="M186 1139l50 282h1570l-41 -235l-1147 -1186h-423l1105 1139h-1114z" />
<glyph unicode="8" d="M63 305q0 82 23.5 154t60 120.5t82.5 84.5t90.5 54t83.5 21q-85 24 -140.5 84.5t-55.5 157.5q0 29 6 63q25 146 83.5 226.5t168 115.5t299.5 35h526q235 0 338 -60t103 -208q0 -329 -316 -414q41 -10 76 -27t68.5 -46.5t53 -77.5t19.5 -109q0 -235 -158 -357t-438 -122 h-518q-230 0 -342.5 74.5t-112.5 230.5zM414 391q0 -69 53.5 -104t173.5 -35h365q158 0 223 57t65 168q0 64 -51.5 98.5t-175.5 34.5h-367q-286 0 -286 -219zM541 963q0 -55 44 -78t163 -23h364q107 0 166 23t80.5 65t21.5 115q0 60 -46 82t-169 22h-366q-79 0 -130 -11.5 t-79 -38.5t-38.5 -63t-10.5 -93z" />
<glyph unicode="9" d="M51 297q0 40 10 102h320q0 -32 1.5 -49.5t10 -34.5t22 -24.5t40.5 -13.5t62 -7.5t91 -1.5h353q158 0 223.5 38t85.5 151l33 186q-30 -29 -53.5 -46.5t-68.5 -39.5t-112 -32.5t-156 -10.5h-262q-131 0 -223 14.5t-161 48.5t-102.5 94t-33.5 148q0 41 10 103 q19 107 41.5 182t57.5 134.5t78.5 96t108.5 61t144 33.5t189 9h497q232 0 348.5 -74.5t116.5 -230.5q0 -48 -8 -89l-110 -632q-39 -219 -176.5 -315.5t-426.5 -96.5h-495q-237 0 -346 72t-109 225zM485 920q0 -72 51 -105t177 -33h358q161 0 230 68t69 192q0 67 -52.5 97 t-182.5 30h-353q-90 0 -149 -15.5t-91 -49t-44.5 -76.5t-12.5 -108z" />
<glyph unicode=":" horiz-adv-x="673" d="M68 0l59 340h340l-59 -340h-340zM180 647l60 340h340l-60 -340h-340z" />
<glyph unicode=";" horiz-adv-x="673" d="M31 -422l35 189q81 0 119.5 24.5t50.5 89.5l10 64h-92l59 340h340l-59 -340q-12 -71 -28.5 -124t-36 -93t-49 -66t-61 -43t-78.5 -26t-94 -12t-116 -3zM268 592l60 340h340l-60 -340h-340z" />
<glyph unicode="&#x3c;" horiz-adv-x="751" d="M45 602l35 203l657 397l-49 -274l-385 -219l307 -222l-47 -274z" />
<glyph unicode="=" horiz-adv-x="1101" d="M84 344l39 227h835l-38 -227h-836zM156 754l41 227h835l-41 -227h-835z" />
<glyph unicode="&#x3e;" horiz-adv-x="751" d="M12 213l47 274l385 222l-307 219l49 274l512 -397l-34 -203z" />
<glyph unicode="?" horiz-adv-x="1775" d="M137 989q16 86 56.5 162.5t110 142.5t180 105t249.5 39h555q253 0 359 -63t106 -216q0 -59 -12 -129q-13 -74 -36.5 -129.5t-62.5 -96t-84 -68t-113.5 -47.5t-137 -32t-168.5 -24q-94 -11 -143.5 -27t-63.5 -32.5t-19 -45.5l-14 -75h-340l23 131q22 123 130.5 204 t293.5 105l202 27q57 7 98 22t61 34t28 37t8 36q0 61 -66.5 83.5t-242.5 22.5h-260q-127 0 -204.5 -20.5t-110 -55.5t-42.5 -90h-340zM479 0l60 340h340l-60 -340h-340z" />
<glyph unicode="@" horiz-adv-x="1335" d="M68 776q0 95 31 192.5t92.5 185t144.5 155.5t196.5 108.5t239.5 40.5q65 0 130.5 -14.5t131 -49t116.5 -85t82.5 -128.5t31.5 -173q0 -53 -9 -108t-32 -114t-57 -104t-89.5 -74.5t-124.5 -29.5q-74 0 -107.5 28.5t-33.5 71.5q-29 -38 -95.5 -69t-160.5 -31 q-110 0 -166.5 60.5t-56.5 152.5q0 61 27 125t73.5 117.5t117.5 87.5t152 34q161 0 205 -108l23 96h94l-98 -326q-21 -71 -21 -84q0 -31 16.5 -47t59.5 -16q47 0 85 33.5t59.5 84.5t32.5 105.5t11 103.5q0 94 -35.5 167t-95 116.5t-131 65.5t-151.5 22q-130 0 -241.5 -51.5 t-184 -134t-113.5 -184t-41 -203.5q0 -79 25 -147t74 -122t129.5 -85t183.5 -31q95 0 192.5 34t147.5 84l49 -73q-49 -53 -168.5 -94.5t-245.5 -41.5q-100 0 -182.5 24t-140 66.5t-96.5 100.5t-57.5 125t-18.5 141zM444 819q0 -38 12 -69.5t47 -55.5t89 -24q99 0 170.5 75.5 t71.5 172.5q0 22 -6.5 45t-21.5 46.5t-44 38.5t-68 15q-98 0 -174 -78t-76 -166z" />
<glyph unicode="A" horiz-adv-x="2013" d="M-109 0l1004 1421h504l497 -1421h-399l-119 358h-841l-248 -358h-398zM721 627h567l-178 528h-16z" />
<glyph unicode="B" horiz-adv-x="1816" d="M2 0l250 1421h1024q218 0 327 -64t109 -210q0 -41 -4.5 -81.5t-19.5 -93.5t-40 -94.5t-71 -77t-107 -50.5q94 -33 139.5 -82t45.5 -148q0 -37 -10 -102q-39 -225 -170.5 -321.5t-378.5 -96.5h-1094zM389 268h682q141 0 192.5 50.5t51.5 179.5q0 51 -37.5 73.5 t-136.5 22.5h-695zM492 846h694q71 0 120.5 57t49.5 146q0 45 -27 74.5t-92 29.5h-692z" />
<glyph unicode="C" horiz-adv-x="1863" d="M45 317q0 80 18 185l72 403q23 127 56 215.5t82 151.5t121.5 98.5t164.5 51.5t221 16h566q114 0 196.5 -16t147 -54t97 -107t32.5 -169q0 -68 -15 -150h-340q6 30 6 53q0 85 -55.5 122.5t-183.5 37.5h-436q-90 0 -141.5 -9t-89.5 -39t-57 -78.5t-34 -135.5l-61 -352 q-11 -68 -11 -99q0 -94 55 -126.5t183 -32.5h436q157 0 222.5 41.5t86.5 167.5h342q-27 -149 -63 -238t-105 -149t-170 -82.5t-262 -22.5h-632q-245 0 -347 70.5t-102 246.5z" />
<glyph unicode="D" horiz-adv-x="1837" d="M0 0l250 1421h1098q222 0 326 -82t104 -268q0 -64 -17 -168l-67 -377q-50 -280 -186 -403t-408 -123h-1100zM389 283h612q126 0 198 26t105.5 75.5t49.5 139.5l65 373q8 36 8 74q0 86 -62 127t-212 41h-612z" />
<glyph unicode="E" horiz-adv-x="1708" d="M14 0l250 1421h1452l-47 -268h-1112l-55 -311h1077l-43 -248h-1077l-58 -326h1112l-47 -268h-1452z" />
<glyph unicode="F" horiz-adv-x="1665" d="M-2 0l250 1421h1452l-49 -282h-1112l-47 -262h1079l-49 -283h-1080l-104 -594h-340z" />
<glyph unicode="G" horiz-adv-x="1916" d="M43 348q0 51 14 137l76 437q50 283 192.5 399.5t424.5 116.5h682q117 0 197 -13t141.5 -46.5t90.5 -93t29 -148.5q0 -47 -14 -136h-340q4 24 4 37q0 62 -56 89.5t-190 27.5h-501q-156 0 -227.5 -59t-98.5 -217l-64 -361q-10 -65 -10 -100q0 -80 51 -107.5t189 -27.5h559 q124 0 177 34t67 113l26 152h-561l45 252h901l-67 -379q-44 -253 -180 -354t-416 -101h-688q-227 0 -340 83.5t-113 264.5z" />
<glyph unicode="H" horiz-adv-x="1769" d="M-16 0l249 1421h340l-96 -544h879l96 544h340l-250 -1421h-340l105 594h-879l-104 -594h-340z" />
<glyph unicode="I" horiz-adv-x="671" d="M55 0l250 1421h340l-250 -1421h-340z" />
<glyph unicode="J" horiz-adv-x="1589" d="M4 358q0 74 14 148l21 106h340l-14 -80q-9 -46 -9 -86q0 -82 45.5 -122.5t151.5 -40.5h287q127 0 190.5 63.5t83.5 181.5l158 893h340l-162 -915q-46 -262 -191.5 -384t-416.5 -122h-385q-233 0 -343 87.5t-110 270.5z" />
<glyph unicode="K" horiz-adv-x="1861" d="M2 0l250 1421h340l-92 -530h200l713 530h510l-954 -665l737 -756h-500l-551 608h-206l-107 -608h-340z" />
<glyph unicode="L" horiz-adv-x="1439" d="M-2 0l250 1421h340l-201 -1138h879l-49 -283h-1219z" />
<glyph unicode="M" horiz-adv-x="2492" d="M20 0l250 1421h633l271 -1138h20l672 1138h633l-250 -1421h-340l200 1139h-45l-688 -1139h-483l-287 1139h-45l-217 -1139h-324z" />
<glyph unicode="N" horiz-adv-x="2088" d="M10 0l250 1421h571l666 -1138h47l201 1138h340l-250 -1421h-584l-653 1139h-47l-201 -1139h-340z" />
<glyph unicode="O" horiz-adv-x="1875" d="M59 332q0 68 15 153l78 447q27 148 70.5 243.5t118 155t175.5 83.5t250 24h625q230 0 336 -72.5t106 -257.5q0 -74 -18 -176l-78 -447q-24 -137 -64 -226t-110.5 -148.5t-173 -85t-252.5 -25.5h-625q-238 0 -345.5 78.5t-107.5 253.5zM410 430q0 -84 52 -115.5t181 -31.5 h451q162 0 222.5 47t86.5 192l67 379q11 68 11 96q0 91 -54.5 124.5t-183.5 33.5h-438q-161 0 -226.5 -52.5t-91.5 -203.5l-67 -379q-10 -58 -10 -90z" />
<glyph unicode="P" horiz-adv-x="1638" d="M-10 0l250 1421h968q225 0 326.5 -77t101.5 -254q0 -68 -16 -166q-49 -270 -185 -387t-399 -117h-633l-73 -420h-340zM453 702h567q138 0 203 74.5t65 220.5q0 72 -43 107t-147 35h-568z" />
<glyph unicode="Q" horiz-adv-x="1902" d="M57 338q0 53 13 129l86 494q29 169 95 271t191 154t322 52h622q239 0 343 -71.5t104 -250.5q0 -77 -18 -182l-105 -592l127 -104l-227 -271l-127 94q-107 -61 -301 -61h-670q-229 0 -342 81t-113 257zM412 436q0 -89 54.5 -121t186.5 -32h531l-387 268l247 280 q23 -19 60 -50.5t115.5 -97.5t131 -109t52.5 -42l70 394q4 24 4 49q0 78 -54 129t-182 51h-434q-145 0 -224 -71t-96 -175l-67 -385q-8 -44 -8 -88z" />
<glyph unicode="R" horiz-adv-x="1820" d="M-4 0l250 1421h1079q66 0 112.5 -3t94.5 -11.5t80.5 -24t62 -41t46 -62t26.5 -87.5t10 -117q0 -73 -14 -153q-14 -78 -41.5 -140t-66.5 -105t-77.5 -71.5t-87.5 -54.5q97 -34 144 -78t47 -123q0 -42 -55 -350h-340q43 229 43 272q0 77 -57 113.5t-183 36.5h-659l-74 -422 h-340zM459 705h710q242 0 242 299q0 71 -37.5 103t-126.5 32h-710z" />
<glyph unicode="S" horiz-adv-x="1837" d="M29 279q0 57 12 124h340q0 -60 37 -97.5t106 -37.5h570q124 0 182.5 53t58.5 166q0 54 -41.5 79.5t-152.5 25.5h-504q-103 0 -174.5 7t-130.5 24.5t-93.5 48.5t-52.5 79t-18 117q0 61 16 152q37 215 174.5 308t421.5 93h578q221 0 323.5 -71.5t102.5 -223.5 q0 -41 -10 -106h-340q1 5 2.5 15t2.5 16.5t1 9.5q0 47 -35.5 69.5t-122.5 22.5h-571q-86 0 -140.5 -47t-54.5 -145q0 -61 36 -81t107 -20h621q73 0 121.5 -3t99.5 -11.5t81.5 -26t56 -46t36.5 -71.5t11 -102q0 -74 -17 -168q-40 -228 -166.5 -330t-376.5 -102h-686 q-221 0 -316 67.5t-95 211.5z" />
<glyph unicode="T" horiz-adv-x="1638" d="M150 1139l49 282h1534l-50 -282h-600l-200 -1139h-340l200 1139h-593z" />
<glyph unicode="U" horiz-adv-x="1835" d="M47 365q0 65 12 141l162 915h340l-155 -882q-9 -49 -9 -86q0 -93 54.5 -131.5t171.5 -38.5h469q131 0 199 56t93 202l156 880h340l-162 -915q-49 -280 -184 -393t-412 -113h-624q-229 0 -340 89.5t-111 275.5z" />
<glyph unicode="V" horiz-adv-x="2013" d="M141 1421h394l389 -1138h41l798 1138h389l-1011 -1421h-492z" />
<glyph unicode="W" horiz-adv-x="2848" d="M164 1421h352l244 -1138h18l602 1138h355l204 -1138h25l635 1138h352l-801 -1421h-499l-172 967l-512 -967h-500z" />
<glyph unicode="X" horiz-adv-x="2015" d="M-125 0l864 731l-534 690h461l372 -518l553 518h461l-776 -690l606 -731h-500l-405 561l-602 -561h-500z" />
<glyph unicode="Y" horiz-adv-x="1806" d="M137 1421h428l355 -661l591 661h428l-897 -942l-84 -479h-340l84 479z" />
<glyph unicode="Z" horiz-adv-x="1773" d="M-51 0l49 279l1247 860h-1095l49 282h1597l-51 -286l-1206 -852h1056l-49 -283h-1597z" />
<glyph unicode="[" horiz-adv-x="591" d="M-27 -227l316 1786h379l-21 -121h-151l-273 -1544h158l-21 -121h-387z" />
<glyph unicode="\" horiz-adv-x="692" d="M160 1491h227l160 -1673h-228z" />
<glyph unicode="]" horiz-adv-x="591" d="M-55 -227l22 121h158l270 1544h-153l22 121h381l-315 -1786h-385z" />
<glyph unicode="^" horiz-adv-x="831" d="M37 817l387 496h82l213 -496h-68l-217 318l-332 -318h-65z" />
<glyph unicode="_" horiz-adv-x="796" d="M-8 -115l20 113h795l-21 -113h-794z" />
<glyph unicode="`" horiz-adv-x="655" d="M106 1401l183 151l248 -350l-91 -67z" />
<glyph unicode="a" horiz-adv-x="1581" d="M68 205q0 33 4 53l20 123q12 66 40.5 113.5t80.5 83t135.5 53.5t200.5 18h412q73 0 113 -23.5t59 -74.5q2 16 9 53t12 66.5t5 36.5q0 54 -36.5 74t-133.5 20h-360q-81 0 -107.5 -9.5t-32.5 -39.5l-6 -33h-323q12 66 41 116.5t81.5 91.5t138.5 63t202 22h501 q195 0 285 -75t90 -202q0 -26 -8 -80l-117 -655h-340l21 115q-60 -65 -105.5 -90t-130.5 -25h-454q-141 0 -219 51.5t-78 153.5zM412 287q0 -37 30 -56.5t115 -19.5h350q98 0 142.5 31t44.5 112q0 43 -30.5 63.5t-117.5 20.5h-350q-96 0 -140 -31t-44 -120z" />
<glyph unicode="b" horiz-adv-x="1605" d="M-8 0l250 1421h340l-99 -563q6 10 16.5 23t39 38t62 44t88 34t114.5 15h303q180 0 278.5 -83.5t98.5 -232.5q0 -47 -8 -88l-37 -211q-32 -182 -161.5 -289.5t-348.5 -107.5h-303q-53 0 -101.5 13.5t-79.5 32.5t-54 38.5t-34 33.5l-10 13l-14 -131h-340zM403 391 q0 -63 51 -110.5t152 -47.5h230q123 0 187 47.5t79 143.5l28 160q5 30 5 43q0 74 -47.5 112.5t-155.5 38.5h-230q-106 0 -179.5 -55t-88.5 -137q-31 -163 -31 -195z" />
<glyph unicode="c" horiz-adv-x="1482" d="M43 301q0 37 6 74l43 243q31 183 159 290.5t329 107.5h460q213 0 309.5 -60t96.5 -198q0 -37 -10 -99h-340q4 20 4 43q0 41 -29 60.5t-98 19.5h-322q-92 0 -150 -51.5t-75 -146.5q-35 -204 -35 -211q0 -61 39.5 -100.5t112.5 -39.5h327q92 0 126 28.5t48 105.5h340 q-17 -96 -47 -160t-87.5 -113t-150 -71.5t-227.5 -22.5h-483q-168 0 -257 84t-89 217z" />
<glyph unicode="d" horiz-adv-x="1605" d="M53 307q0 49 8 90l37 211q34 187 170 295.5t342 108.5h303q113 0 177.5 -44t89.5 -110l98 563h340l-250 -1421h-340l23 131q-5 -5 -15 -14t-42 -31.5t-66.5 -40t-87 -31.5t-105.5 -14h-303q-190 0 -284.5 82t-94.5 225zM403 391q0 -63 51 -110.5t152 -47.5h230 q123 0 187 47.5t79 143.5l28 160q5 30 5 43q0 74 -47.5 112.5t-155.5 38.5h-230q-106 0 -179.5 -55t-88.5 -137q-31 -163 -31 -195z" />
<glyph unicode="e" horiz-adv-x="1429" d="M0 301q0 45 8 86l45 256q12 70 48 134t94.5 118.5t148.5 87.5t199 33h483q102 0 176 -25t115.5 -69.5t60.5 -99t19 -120.5q0 -43 -41 -270h-1002q-12 -71 -12 -98q0 -56 29.5 -89.5t105.5 -33.5h393q123 0 144 121h325q-11 -57 -30.5 -103.5t-56.5 -90t-89 -73 t-130.5 -47.5t-178.5 -18h-498q-178 0 -267 81.5t-89 219.5zM389 621h676q4 32 4 47q0 137 -162 137h-313q-93 0 -142.5 -51t-62.5 -133z" />
<glyph unicode="f" horiz-adv-x="1026" d="M63 0l138 778h-125l41 234h125l16 92q26 151 145 234t359 83h264l-41 -233h-237q-83 0 -112.5 -18.5t-39.5 -79.5l-14 -78h368l-41 -234h-368l-138 -778h-340z" />
<glyph unicode="g" horiz-adv-x="1585" d="M57 -162q0 30 6 64h343q0 -61 29 -90t95 -29h349q79 0 132.5 41.5t65.5 112.5l39 210q-35 -58 -121 -102.5t-188 -44.5h-330q-179 0 -272.5 85t-93.5 218q0 33 6 68l45 260q32 181 169.5 281t338.5 100h309q59 0 107.5 -12.5t75 -28t47 -36.5t26.5 -31t10 -19l23 127h340 l-187 -1059q-34 -195 -169 -299.5t-365 -104.5h-490q-153 0 -246.5 79.5t-93.5 209.5zM467 391q0 -63 51 -110.5t152 -47.5h229q123 0 187 47.5t79 143.5l29 160q4 24 4 43q0 74 -47.5 112.5t-155.5 38.5h-229q-106 0 -179.5 -55t-88.5 -137q-31 -163 -31 -195z" />
<glyph unicode="h" horiz-adv-x="1599" d="M-12 0l250 1421h340l-99 -555q125 146 322 146h274q197 0 292 -78.5t95 -222.5q0 -53 -8 -97l-108 -614h-340l92 522q8 41 8 84q0 88 -49 130t-156 42h-166q-129 0 -212.5 -73.5t-108.5 -208.5l-86 -496h-340z" />
<glyph unicode="i" horiz-adv-x="610" d="M18 0l179 1012h340l-179 -1012h-340zM219 1139l49 282h340l-49 -282h-340z" />
<glyph unicode="j" horiz-adv-x="698" d="M-129 -434l49 276q32 0 63.5 10t66.5 34.5t62.5 74t39.5 119.5l165 932h340l-190 -1071q-65 -375 -596 -375zM340 1139l49 282h340l-49 -282h-340z" />
<glyph unicode="k" horiz-adv-x="1325" d="M-29 0l250 1421h340l-135 -772h125l405 363h383l-555 -469l420 -543h-405l-285 438h-125l-78 -438h-340z" />
<glyph unicode="l" horiz-adv-x="600" d="M8 0l250 1421h340l-250 -1421h-340z" />
<glyph unicode="m" horiz-adv-x="2383" d="M29 0l178 1012h340l-29 -158q53 54 96 85t108 52t148 21h199q79 0 140 -14t96 -37.5t54.5 -47t29.5 -49.5q45 52 84.5 80t120 48t202.5 20h121q204 0 299.5 -77.5t95.5 -217.5q0 -48 -8 -92l-111 -625h-340l99 557q10 55 10 88q0 67 -45 100t-162 33h-82 q-125 0 -200.5 -62.5t-96.5 -172.5l-96 -543h-340l98 547q6 37 6 67q0 80 -48.5 122t-164.5 42h-100q-224 0 -266 -229l-96 -549h-340z" />
<glyph unicode="n" horiz-adv-x="1583" d="M16 0l179 1012h340l-27 -144q38 62 119 103t200 41h275q191 0 288 -82.5t97 -235.5q0 -51 -8 -98l-107 -596h-340l94 528q9 46 9 84q0 88 -48.5 127t-156.5 39h-168q-130 0 -212.5 -71t-105.5 -205l-88 -502h-340z" />
<glyph unicode="o" horiz-adv-x="1576" d="M78 317q0 24 8 82l37 211q20 114 83.5 204t176 146t256.5 56h473q188 0 284.5 -89t96.5 -235q0 -24 -8 -82l-39 -215q-32 -178 -166.5 -286.5t-345.5 -108.5h-475q-184 0 -282.5 85.5t-98.5 231.5zM424 373q0 -72 50 -106t153 -34h231q114 0 174.5 44.5t79.5 144.5 l29 162q4 32 4 45q0 72 -47.5 112.5t-141.5 40.5h-231q-232 0 -266 -196l-31 -166q-4 -24 -4 -47z" />
<glyph unicode="p" horiz-adv-x="1564" d="M-25 -410l250 1422h340l-20 -121q32 26 56.5 42.5t64.5 37t88.5 31t103.5 10.5h307q187 0 284 -76t97 -223q0 -51 -8 -95l-39 -221q-31 -175 -163 -286t-349 -111h-305q-103 0 -174.5 43t-95.5 96l-97 -549h-340zM467 391q0 -63 51 -110.5t152 -47.5h229q123 0 187 47.5 t79 143.5l29 160q4 24 4 43q0 74 -47.5 112.5t-155.5 38.5h-229q-106 0 -179.5 -55t-88.5 -137q-31 -163 -31 -195z" />
<glyph unicode="q" horiz-adv-x="1583" d="M104 313q0 19 9 84l39 221q35 193 166.5 293.5t345.5 100.5h307q55 0 100 -10.5t78 -31.5t51.5 -37t42.5 -42l21 121h340l-250 -1422h-340l96 549q-42 -52 -129 -95.5t-190 -43.5h-306q-190 0 -285.5 85.5t-95.5 227.5zM455 391q0 -63 50.5 -110.5t151.5 -47.5h230 q123 0 187 47.5t79 143.5l29 160q4 24 4 43q0 74 -47.5 112.5t-155.5 38.5h-229q-106 0 -180 -55t-89 -137q-30 -158 -30 -195z" />
<glyph unicode="r" horiz-adv-x="1398" d="M-4 0l178 1012h340l-27 -148q78 81 147 114.5t171 33.5h170q108 0 184.5 -22.5t118 -64t60 -92.5t18.5 -116q0 -50 -13 -117h-339q0 40 -5 66.5t-21.5 55t-53.5 42.5t-95 14h-124q-102 0 -180 -69.5t-97 -173.5l-92 -535h-340z" />
<glyph unicode="s" horiz-adv-x="1429" d="M41 236q0 47 8 88h285q0 -65 22.5 -89t89.5 -24h418q76 0 115 26t39 72q0 34 -28 61t-99 27h-485q-291 0 -291 215q0 31 16 127q11 63 39 110.5t79 86.5t134 59.5t195 20.5h454q199 0 284 -51t85 -172q0 -39 -10 -97h-306q0 68 -32.5 88.5t-122.5 20.5h-385 q-70 0 -107 -28t-37 -75q0 -13 2.5 -23t12 -22t32.5 -19t58 -7h461q196 0 284 -50t88 -151q0 -25 -16 -123q-28 -152 -145.5 -229.5t-317.5 -77.5h-483q-175 0 -255.5 57.5t-80.5 178.5z" />
<glyph unicode="t" horiz-adv-x="1366" d="M76 778l41 234h123l34 194h340l-34 -194h634l-40 -234h-635l-64 -356q-6 -40 -6 -62q0 -127 135 -127h141q70 0 110.5 49.5t55.5 131.5h340q-9 -50 -20.5 -90t-32.5 -84.5t-49 -78t-71 -65t-97 -52t-129 -32.5t-166 -12h-215q-170 0 -260 77.5t-90 215.5q0 43 8 84 l70 401h-123z" />
<glyph unicode="u" horiz-adv-x="1630" d="M84 322q0 41 10 106l105 584h340l-90 -502q-7 -44 -7 -68q0 -107 61.5 -158t190.5 -51h133q132 0 224.5 73t115.5 204l90 502h340l-180 -1012h-340l25 129q-50 -59 -132 -94t-186 -35h-325q-175 0 -275 80t-100 242z" />
<glyph unicode="v" horiz-adv-x="1384" d="M119 1012h332l211 -729l471 729h329l-657 -1012h-387z" />
<glyph unicode="w" horiz-adv-x="2267" d="M131 1012h330l176 -729l432 729h326l176 -729l432 729h332l-623 -1012h-387l-160 633l-387 -633h-385z" />
<glyph unicode="x" horiz-adv-x="1419" d="M-41 0l543 528l-322 484h383l193 -307l295 307h383l-494 -484l354 -528h-379l-225 358l-352 -358h-379z" />
<glyph unicode="y" horiz-adv-x="1400" d="M172 -432l41 233h47q91 0 144 36t133 163h-91l-251 1012h317l154 -729h39l466 729h328l-655 -1010q-67 -103 -108.5 -163t-90.5 -115t-85.5 -80.5t-91 -45.5t-110 -25t-139.5 -5h-47z" />
<glyph unicode="z" horiz-adv-x="1355" d="M-10 0l49 272l852 506h-754l43 234h1174l-47 -262l-856 -517h766l-43 -233h-1184z" />
<glyph unicode="{" horiz-adv-x="622" d="M66 631q149 95 167 200l62 353q63 356 483 356l-20 -121q-107 0 -157.5 -41t-70.5 -149l-69 -398q-7 -38 -26 -72.5t-41 -56.5t-42.5 -39t-34.5 -25l-14 -7q42 -36 65 -84.5t23 -87.5q0 -11 -13 -87.5t-32.5 -188t-26.5 -150.5q-6 -34 -6 -62q0 -66 39.5 -93.5 t126.5 -27.5l-20 -120q-76 0 -140.5 13.5t-117.5 41.5t-83 77t-30 115q0 32 4 56q7 46 26.5 151.5t32.5 182t13 90.5q0 89 -98 174z" />
<glyph unicode="|" horiz-adv-x="409" d="M-37 -272l316 1785h170l-316 -1785h-170z" />
<glyph unicode="}" horiz-adv-x="622" d="M-94 -270l20 120q104 0 156 40.5t70 142.5l69 397q11 58 60.5 112.5t99.5 88.5q-40 24 -66 69.5t-26 87.5q0 66 12 139t32.5 164.5t28.5 137.5q9 61 9 69q0 66 -39 93.5t-127 27.5l20 121q365 0 365 -270q0 -45 -8 -86q-7 -46 -24.5 -142t-28.5 -161.5t-11 -77.5 q0 -95 100 -172q-66 -41 -113 -96t-56 -105l-70 -397q-14 -81 -60 -141.5t-113 -94.5t-142 -50.5t-158 -16.5z" />
<glyph unicode="~" horiz-adv-x="1210" d="M96 692q0 4 3.5 17.5t14.5 39t27.5 53t47 56.5t69 51.5t96.5 37t127 14.5q46 0 82 -11t58.5 -26.5t42 -31.5t43 -27t51.5 -11q40 0 71.5 11t48 27t27.5 31.5t14 26.5l3 11h182q-1 -6 -4 -15.5t-15.5 -37.5t-29 -53.5t-47 -56.5t-67.5 -53t-92 -37.5t-118 -15.5 q-45 0 -78.5 11t-54 27t-39.5 31.5t-46.5 26.5t-63.5 11t-65.5 -11t-46.5 -26.5t-29 -31.5t-16 -27l-5 -11h-191z" />
<glyph unicode="&#xa9;" horiz-adv-x="1458" d="M14 711q0 45 13 133l61 346q40 225 156.5 324.5t355.5 99.5h485q187 0 276 -64.5t89 -230.5q0 -52 -14 -129l-62 -346q-21 -124 -58.5 -204t-100 -125.5t-141.5 -63t-197 -17.5h-486q-197 0 -287 65t-90 212zM180 750q0 -88 54 -120t186 -32h485q59 0 98 3.5t72 14 t52.5 26.5t36 45.5t26.5 65.5t20 91l64 356q12 74 12 107q0 85 -48 114t-181 29h-486q-154 0 -222.5 -52t-94.5 -200l-64 -354q-10 -62 -10 -94zM281 815q0 37 47 299q27 149 91 205.5t220 56.5h313q116 0 172 -36t56 -123q0 -33 -6 -70h-119q6 30 6 51q0 36 -26 47.5 t-103 11.5h-318q-38 0 -57.5 -0.5t-40 -6.5t-28.5 -12.5t-17 -25t-13.5 -37.5t-11.5 -57q-47 -263 -47 -284q0 -41 28.5 -52.5t104.5 -11.5h312q98 0 124.5 17.5t39.5 93.5h118q-24 -127 -88.5 -178.5t-210.5 -51.5h-315q-122 0 -176.5 36t-54.5 128z" />
<glyph unicode="&#xab;" horiz-adv-x="1236" d="M31 516l18 102l633 455l96 -149l-497 -353l374 -348l-145 -153zM522 516l19 102l633 455l96 -149l-498 -353l375 -348l-146 -153z" />
<glyph unicode="&#xad;" horiz-adv-x="1101" d="M113 520l49 283h835l-49 -283h-835z" />
<glyph unicode="&#xae;" horiz-adv-x="1458" d="M14 717q0 51 13 127l61 346q40 225 156.5 324.5t355.5 99.5h485q183 0 274 -63.5t91 -221.5q0 -65 -14 -139l-62 -346q-21 -124 -58.5 -204t-100 -125.5t-141.5 -63t-197 -17.5h-486q-197 0 -287 66t-90 217zM180 750q0 -88 54 -120t186 -32h485q88 0 137.5 8.5 t84.5 37.5t51.5 73.5t31.5 126.5l64 356q12 74 12 107q0 85 -49.5 114t-179.5 29h-486q-154 0 -222.5 -52t-94.5 -200l-64 -354q-10 -62 -10 -94zM287 680l123 696h518q69 0 115 -12.5t67.5 -36t29 -47t7.5 -53.5q0 -54 -26 -133.5t-66 -100.5q32 -28 32 -92q0 -51 -34 -221 h-119q31 163 31 178q0 76 -76 76h-438l-45 -254h-119zM471 1053h418q69 0 102 31t33 114q0 30 -17.5 44.5t-74.5 14.5h-424z" />
<glyph unicode="&#xbb;" horiz-adv-x="1255" d="M-27 229l490 342l-365 344l150 150l461 -447l-19 -102l-618 -434zM483 229l488 342l-363 344l150 150l461 -447l-19 -102l-618 -434z" />
<glyph unicode="&#x401;" horiz-adv-x="1708" d="M-18 0l249 1421h1452l-47 -268h-1112l-55 -311h1077l-43 -248h-1077l-57 -326h1112l-47 -268h-1452zM625 1507l49 283h340l-49 -283h-340zM1094 1507l49 283h340l-49 -283h-340z" />
<glyph unicode="&#x404;" horiz-adv-x="1863" d="M45 317q0 80 18 185l74 418q23 125 56 211.5t81.5 147.5t121 95t164 49t220.5 15h559q92 0 162.5 -9t132.5 -32t101.5 -61.5t62.5 -99t23 -142.5q0 -64 -15 -144h-338q5 30 5 54q0 79 -56.5 115t-183.5 36h-436q-74 0 -117.5 -4.5t-81.5 -18t-59 -42.5t-36.5 -71.5 t-27.5 -111.5l-10 -63h846l-45 -248h-846q-19 -125 -19 -154q0 -94 55 -126.5t183 -32.5h436q157 0 223.5 42.5t87.5 166.5h340q-27 -149 -63 -238t-105 -149t-170 -82.5t-262 -22.5h-632q-245 0 -347 70.5t-102 246.5z" />
<glyph unicode="&#x405;" horiz-adv-x="1155" d="M129 461l246 209l-172 209l235 198l172 -209l246 209l166 -198l-246 -209l172 -209l-231 -195l-172 207l-254 -207z" />
<glyph unicode="&#x406;" horiz-adv-x="671" d="M55 0l250 1421h340l-250 -1421h-340z" />
<glyph unicode="&#x407;" horiz-adv-x="692" d="M18 0l250 1421h340l-250 -1421h-340zM53 1507l49 283h340l-49 -283h-340zM522 1507l49 283h340l-49 -283h-340z" />
<glyph unicode="&#x408;" horiz-adv-x="1155" d="M31 -422l35 189q81 0 119.5 24.5t50.5 89.5l10 64h-92l59 340h340l-59 -340q-12 -71 -28.5 -124t-36 -93t-49 -66t-61 -43t-78.5 -26t-94 -12t-116 -3zM549 -422l35 189q81 0 119.5 24.5t50.5 89.5l10 64h-92l59 340h340l-59 -340q-12 -71 -28.5 -124t-36 -93t-49 -66 t-61 -43t-78.5 -26t-94 -12t-116 -3z" />
<glyph unicode="&#x40e;" horiz-adv-x="1800" d="M109 1421h401l334 -800l590 800h403l-850 -1069q-65 -82 -112.5 -136t-94.5 -95t-83.5 -63.5t-84 -36t-92 -17.5t-110.5 -4h-134l48 268h67q106 0 159.5 26.5t53.5 70.5q0 26 -14 55zM565 1729q0 44 8 88l5 18h276q-6 -37 -6 -61q0 -53 38 -67.5t154 -14.5 q71 0 107.5 3.5t66.5 19t42.5 43t21.5 77.5h276q-10 -56 -22 -93t-35.5 -75t-60.5 -61.5t-94 -43t-139.5 -28t-192.5 -8.5q-172 0 -269.5 21.5t-136.5 64.5t-39 117z" />
<glyph unicode="&#x410;" horiz-adv-x="2013" d="M-109 0l1004 1421h504l497 -1421h-399l-119 358h-841l-248 -358h-398zM721 627h567l-178 528h-16z" />
<glyph unicode="&#x411;" horiz-adv-x="1728" d="M8 0l250 1421h1333l-47 -268h-993l-45 -262h620q114 0 193 -13.5t139 -47.5t88.5 -94.5t28.5 -151.5q0 -138 -48 -274.5t-132 -203.5q-75 -60 -175.5 -83t-242.5 -23h-969zM397 283h588q134 0 182 39q29 23 45.5 87.5t16.5 102.5q0 51 -37.5 73.5t-136.5 22.5h-600z" />
<glyph unicode="&#x412;" horiz-adv-x="1816" d="M2 0l250 1421h1024q218 0 327 -64t109 -210q0 -41 -4.5 -81.5t-19.5 -93.5t-40 -94.5t-71 -77t-107 -50.5q94 -33 139.5 -82t45.5 -148q0 -37 -10 -102q-39 -225 -170.5 -321.5t-378.5 -96.5h-1094zM389 268h682q141 0 192.5 50.5t51.5 179.5q0 51 -37.5 73.5 t-136.5 22.5h-695zM492 846h694q71 0 120.5 57t49.5 146q0 45 -27 74.5t-92 29.5h-692z" />
<glyph unicode="&#x413;" horiz-adv-x="1439" d="M-2 0l250 1421h1218l-49 -282h-878l-201 -1139h-340z" />
<glyph unicode="&#x414;" horiz-adv-x="1972" d="M-90 -340l110 623h97q108 90 165.5 197t84.5 261l120 680h1422l-201 -1138h158l-111 -623h-309l59 340h-1224l-60 -340h-311zM498 283h870l150 856h-754l-82 -467q-20 -117 -63.5 -209t-120.5 -180z" />
<glyph unicode="&#x415;" horiz-adv-x="1708" d="M14 0l250 1421h1452l-47 -268h-1112l-55 -311h1077l-43 -248h-1077l-58 -326h1112l-47 -268h-1452z" />
<glyph unicode="&#x416;" horiz-adv-x="2988" d="M-51 0l915 756l-628 665h481l467 -530h170l92 530h340l-92 -530h170l651 530h481l-862 -665l649 -756h-454l-510 608h-177l-106 -608h-340l107 608h-177l-723 -608h-454z" />
<glyph unicode="&#x417;" horiz-adv-x="1837" d="M29 276q0 56 12 127h340q0 -61 36.5 -98t106.5 -37h570q127 0 189.5 49.5t62.5 157.5q0 59 -44.5 88t-160.5 29h-625l43 248h664q51 0 93 18t72.5 65.5t30.5 118.5q0 111 -141 111h-571q-101 0 -141 -31t-56 -102h-340q36 207 167.5 304t387.5 97h578q247 0 356.5 -68.5 t109.5 -224.5q0 -161 -69 -269.5t-184 -139.5q84 -33 128 -85.5t44 -135.5q0 -22 -7 -66q-40 -227 -171.5 -329.5t-383.5 -102.5h-686q-222 0 -316.5 65.5t-94.5 210.5z" />
<glyph unicode="&#x418;" horiz-adv-x="2088" d="M10 0l250 1421h340l-201 -1138h47l1067 1138h572l-250 -1421h-340l201 1139h-47l-1055 -1139h-584z" />
<glyph unicode="&#x419;" horiz-adv-x="2088" d="M-27 0l250 1421h340l-201 -1138h48l1067 1138h571l-250 -1421h-340l201 1139h-47l-1055 -1139h-584zM653 1729q0 39 9 88l4 18h276q-6 -37 -6 -61q0 -53 38 -67.5t154 -14.5q71 0 107.5 3.5t66.5 19t42.5 43t21.5 77.5h276q-10 -56 -22 -93t-35.5 -75t-60.5 -61.5 t-94 -43t-139.5 -28t-192.5 -8.5q-172 0 -269.5 21.5t-136.5 64.5t-39 117z" />
<glyph unicode="&#x41a;" horiz-adv-x="1861" d="M2 0l250 1421h340l-92 -530h200l713 530h510l-954 -665l737 -756h-500l-551 608h-206l-107 -608h-340z" />
<glyph unicode="&#x41b;" horiz-adv-x="1824" d="M-88 0l49 283q66 0 108 12.5t71 46.5t45.5 82.5t31.5 130.5l152 866h1478l-250 -1421h-340l201 1139h-799l-110 -623q-89 -516 -494 -516h-143z" />
<glyph unicode="&#x41c;" horiz-adv-x="2492" d="M20 0l250 1421h633l271 -1138h20l672 1138h633l-250 -1421h-340l200 1139h-45l-688 -1139h-483l-287 1139h-45l-217 -1139h-324z" />
<glyph unicode="&#x41d;" horiz-adv-x="1769" d="M-16 0l249 1421h340l-96 -544h879l96 544h340l-250 -1421h-340l105 594h-879l-104 -594h-340z" />
<glyph unicode="&#x41e;" horiz-adv-x="1875" d="M59 332q0 68 15 153l78 447q27 148 70.5 243.5t118 155t175.5 83.5t250 24h625q230 0 336 -72.5t106 -257.5q0 -74 -18 -176l-78 -447q-24 -137 -64 -226t-110.5 -148.5t-173 -85t-252.5 -25.5h-625q-238 0 -345.5 78.5t-107.5 253.5zM410 430q0 -84 52 -115.5t181 -31.5 h451q162 0 222.5 47t86.5 192l67 379q11 68 11 96q0 91 -54.5 124.5t-183.5 33.5h-438q-161 0 -226.5 -52.5t-91.5 -203.5l-67 -379q-10 -58 -10 -90z" />
<glyph unicode="&#x41f;" horiz-adv-x="1769" d="M-16 0l249 1421h1559l-250 -1421h-340l201 1139h-879l-200 -1139h-340z" />
<glyph unicode="&#x420;" horiz-adv-x="1638" d="M-10 0l250 1421h968q225 0 326.5 -77t101.5 -254q0 -68 -16 -166q-49 -270 -185 -387t-399 -117h-633l-73 -420h-340zM453 702h567q138 0 203 74.5t65 220.5q0 72 -43 107t-147 35h-568z" />
<glyph unicode="&#x421;" horiz-adv-x="1863" d="M45 317q0 80 18 185l72 403q23 127 56 215.5t82 151.5t121.5 98.5t164.5 51.5t221 16h566q114 0 196.5 -16t147 -54t97 -107t32.5 -169q0 -68 -15 -150h-340q6 30 6 53q0 85 -55.5 122.5t-183.5 37.5h-436q-90 0 -141.5 -9t-89.5 -39t-57 -78.5t-34 -135.5l-61 -352 q-11 -68 -11 -99q0 -94 55 -126.5t183 -32.5h436q157 0 222.5 41.5t86.5 167.5h342q-27 -149 -63 -238t-105 -149t-170 -82.5t-262 -22.5h-632q-245 0 -347 70.5t-102 246.5z" />
<glyph unicode="&#x422;" horiz-adv-x="1638" d="M150 1139l49 282h1534l-50 -282h-600l-200 -1139h-340l200 1139h-593z" />
<glyph unicode="&#x423;" horiz-adv-x="1800" d="M145 1421h402l334 -800l589 800h404l-850 -1069q-97 -122 -161 -188.5t-131.5 -105t-127 -48.5t-158.5 -10h-133l47 268h68q107 0 160 27t53 74q0 22 -14 51z" />
<glyph unicode="&#x424;" horiz-adv-x="2478" d="M82 438q0 75 18 174l33 195q25 149 72.5 247t124 154.5t173 79.5t234.5 23h441l18 112h340l-18 -112h436q232 0 339 -71.5t107 -256.5q0 -75 -18 -174l-33 -193q-32 -182 -97.5 -286t-186.5 -153.5t-320 -49.5h-436l-23 -127h-340l23 127h-441q-242 0 -344 71.5 t-102 239.5zM436 549q0 -82 50.5 -110.5t183.5 -28.5h348l108 618h-342q-156 0 -223 -51t-94 -203l-21 -125q-10 -65 -10 -100zM1358 410h350q161 0 221 47.5t86 193.5l21 123q10 65 10 98q0 91 -53.5 123.5t-182.5 32.5h-344z" />
<glyph unicode="&#x425;" horiz-adv-x="2015" d="M-125 0l864 731l-534 690h461l372 -518l553 518h461l-776 -690l606 -731h-500l-405 561l-602 -561h-500z" />
<glyph unicode="&#x426;" horiz-adv-x="1927" d="M14 0l250 1421h340l-201 -1138h879l201 1138h340l-201 -1138h160l-111 -625h-311l61 342h-1407z" />
<glyph unicode="&#x427;" horiz-adv-x="1699" d="M143 909q0 90 78 512h340q-25 -128 -45 -259t-20 -158q0 -93 52 -130.5t169 -37.5h239q131 0 205 26t133 96l82 463h340l-250 -1421h-340l115 651q-88 -48 -177.5 -73t-215.5 -25h-258q-228 0 -337.5 87t-109.5 269z" />
<glyph unicode="&#x428;" horiz-adv-x="2652" d="M27 0l249 1421h340l-200 -1138h661l201 1138h340l-201 -1138h662l200 1138h340l-249 -1421h-2343z" />
<glyph unicode="&#x429;" horiz-adv-x="2715" d="M55 0l252 1421h340l-201 -1138h662l201 1138h340l-201 -1138h661l201 1138h340l-201 -1138h158l-110 -623h-308l60 340h-2194z" />
<glyph unicode="&#x42a;" horiz-adv-x="2080" d="M115 1139l49 282h797l-93 -530h621q114 0 193 -13.5t138.5 -47.5t88 -94.5t28.5 -151.5q0 -138 -48 -274.5t-132 -203.5q-75 -60 -175.5 -83t-242.5 -23h-968l200 1139h-456zM760 283h588q134 0 182 39q29 23 45 87t16 103q0 51 -37.5 73.5t-136.5 22.5h-600z" />
<glyph unicode="&#x42b;" horiz-adv-x="2435" d="M12 0l250 1421h340l-92 -530h620q114 0 193 -13.5t139 -47.5t88.5 -94.5t28.5 -151.5q0 -138 -48 -274.5t-132 -203.5q-75 -60 -175.5 -83t-242.5 -23h-969zM401 283h588q134 0 182 39q29 23 45.5 87.5t16.5 102.5q0 51 -37.5 73.5t-136.5 22.5h-600zM1823 0l250 1421 h340l-250 -1421h-340z" />
<glyph unicode="&#x42c;" horiz-adv-x="1671" d="M-10 0l250 1421h340l-93 -530h621q114 0 193 -13.5t138.5 -47.5t88 -94.5t28.5 -151.5q0 -138 -48 -274.5t-132 -203.5q-75 -60 -175.5 -83t-242.5 -23h-968zM379 283h588q134 0 182 39q29 23 45 87t16 103q0 51 -37.5 73.5t-136.5 22.5h-600z" />
<glyph unicode="&#x42d;" horiz-adv-x="1863" d="M41 291q0 80 22 203h340q-8 -40 -8 -72q0 -82 55.5 -110.5t188.5 -28.5h436q78 0 128 10t90.5 38.5t64.5 79.5t39 132l10 55h-846l43 248h846l10 61q13 76 13 117q0 84 -50 107.5t-194 23.5h-436q-147 0 -219 -48.5t-91 -156.5h-340q21 117 62 203.5t96.5 140.5t133 86.5 t160 45t189.5 12.5h562q262 0 369.5 -68t107.5 -250q0 -83 -21 -200l-73 -416q-25 -146 -67 -240t-114.5 -154.5t-174 -85t-251.5 -24.5h-633q-250 0 -349 63.5t-99 227.5z" />
<glyph unicode="&#x42e;" horiz-adv-x="2594" d="M2 0l250 1421h340l-94 -544h342l10 57q26 148 69.5 243.5t117.5 154.5t175 82.5t250 23.5h625q115 0 194 -15.5t136.5 -52.5t84.5 -101.5t27 -160.5q0 -86 -16 -174l-80 -449q-24 -137 -64 -226t-110.5 -148.5t-173 -85t-252.5 -25.5h-625q-238 0 -345 78.5t-107 253.5 q0 73 14 153l18 109h-342l-104 -594h-340zM1106 430q0 -84 52 -115.5t181 -31.5h451q162 0 222.5 47t86.5 192l68 379q10 62 10 96q0 91 -54.5 124.5t-183.5 33.5h-438q-160 0 -225.5 -52t-91.5 -204l-68 -379q-10 -58 -10 -90z" />
<glyph unicode="&#x42f;" horiz-adv-x="1820" d="M-80 0l502 496q-104 26 -175 121.5t-71 224.5q0 26 8 80q21 118 61.5 206.5t93 143.5t124 89t146.5 47t169 13h1080l-250 -1421h-340l80 451h-566l-420 -451h-442zM520 866q0 -76 42 -111.5t132 -35.5h701l75 434h-710q-121 0 -180.5 -74t-59.5 -213z" />
<glyph unicode="&#x430;" horiz-adv-x="1581" d="M68 205q0 33 4 53l20 123q12 66 40.5 113.5t80.5 83t135.5 53.5t200.5 18h412q73 0 113 -23.5t59 -74.5q2 16 9 53t12 66.5t5 36.5q0 54 -36.5 74t-133.5 20h-360q-81 0 -107.5 -9.5t-32.5 -39.5l-6 -33h-323q12 66 41 116.5t81.5 91.5t138.5 63t202 22h501 q195 0 285 -75t90 -202q0 -26 -8 -80l-117 -655h-340l21 115q-60 -65 -105.5 -90t-130.5 -25h-454q-141 0 -219 51.5t-78 153.5zM412 287q0 -37 30 -56.5t115 -19.5h350q98 0 142.5 31t44.5 112q0 43 -30.5 63.5t-117.5 20.5h-350q-96 0 -140 -31t-44 -120z" />
<glyph unicode="&#x431;" horiz-adv-x="1605" d="M53 315q0 22 8 80l93 523q31 182 158 287.5t329 105.5h465q58 0 95.5 30t45.5 80h264q-55 -321 -481 -321h-350q-90 0 -147 -49t-74 -144l-23 -131q33 40 62 67t71.5 54.5t98 41t123.5 13.5h303q181 0 280 -82t99 -229q0 -38 -35 -246q-29 -174 -164.5 -284.5 t-345.5 -110.5h-492q-185 0 -284 85t-99 230zM403 395q0 -69 50.5 -115.5t152.5 -46.5h230q123 0 185.5 47t80.5 144q26 147 26 168q0 75 -46.5 112t-155.5 37h-230q-105 0 -177.5 -59.5t-92.5 -146.5q-23 -103 -23 -140z" />
<glyph unicode="&#x432;" horiz-adv-x="1449" d="M-12 0l180 1012h854q194 0 275 -49.5t81 -159.5q0 -101 -44.5 -182t-135.5 -111q125 -33 125 -168q0 -180 -119 -261t-342 -81h-874zM367 211h499q66 0 112 33.5t46 103.5q0 82 -129 82h-492zM438 618h492q70 0 102.5 35t32.5 84q0 64 -113 64h-483z" />
<glyph unicode="&#x433;" horiz-adv-x="1173" d="M14 0l181 1012h1017l-43 -234h-677l-138 -778h-340z" />
<glyph unicode="&#x434;" horiz-adv-x="1648" d="M-72 -305l97 538h116q161 140 203 379l72 400h1163l-137 -779h149l-96 -538h-311l55 305h-944l-55 -305h-312zM502 233h600l96 545h-496l-34 -192q-37 -212 -166 -353z" />
<glyph unicode="&#x435;" horiz-adv-x="1429" d="M0 301q0 45 8 86l45 256q12 70 48 134t94.5 118.5t148.5 87.5t199 33h483q102 0 176 -25t115.5 -69.5t60.5 -99t19 -120.5q0 -43 -41 -270h-1002q-12 -71 -12 -98q0 -56 29.5 -89.5t105.5 -33.5h393q123 0 144 121h325q-11 -57 -30.5 -103.5t-56.5 -90t-89 -73 t-130.5 -47.5t-178.5 -18h-498q-178 0 -267 81.5t-89 219.5zM389 621h676q4 32 4 47q0 137 -162 137h-313q-93 0 -142.5 -51t-62.5 -133z" />
<glyph unicode="&#x436;" horiz-adv-x="2068" d="M-61 0l585 545l-362 467h383l229 -363h125l66 363h305l-66 -363h125l361 363h383l-531 -467l393 -545h-405l-238 438h-125l-75 -438h-308l78 438h-125l-393 -438h-405z" />
<glyph unicode="&#x437;" horiz-adv-x="1449" d="M41 233q0 48 8 89h305q-4 -20 -4 -39q0 -72 96 -72h418q65 0 112.5 33.5t47.5 99.5q0 38 -26.5 62t-102.5 24h-315l34 188h316q37 0 65 12t42.5 31.5t21 38.5t6.5 37q0 68 -111 68h-315q-87 0 -133.5 -25t-56.5 -84h-306q31 178 134 249t333 71h410q193 0 274.5 -51.5 t81.5 -161.5q0 -101 -43.5 -182t-134.5 -111q125 -33 125 -168q0 -181 -119 -261.5t-344 -80.5h-483q-176 0 -256 56t-80 177z" />
<glyph unicode="&#x438;" horiz-adv-x="1564" d="M16 0l181 1012h305l-137 -779h36l654 779h485l-180 -1012h-305l137 778h-45l-637 -778h-494z" />
<glyph unicode="&#x439;" horiz-adv-x="1589" d="M-4 0l178 1012h305l-137 -779h37l653 779h486l-179 -1012h-305l137 778h-45l-637 -778h-493zM494 1333q0 46 8 90h223q0 -91 29.5 -117t109.5 -26q26 0 46 2t45.5 10.5t43 23.5t32.5 42t22 65h223q-29 -170 -129 -239.5t-311 -69.5q-182 0 -262 50t-80 169z" />
<glyph unicode="&#x43a;" horiz-adv-x="1325" d="M8 0l178 1012h340l-65 -363h125l407 363h383l-557 -469l420 -543h-405l-285 438h-125l-76 -438h-340z" />
<glyph unicode="&#x43b;" horiz-adv-x="1552" d="M-72 0l43 233q47 0 77 3t56.5 13t42 25t29.5 43.5t22.5 63.5t18.5 90l96 541h1190l-180 -1012h-340l137 778h-522l-61 -354q-37 -210 -155.5 -317t-309.5 -107h-144z" />
<glyph unicode="&#x43c;" horiz-adv-x="1978" d="M49 0l180 1012h512l187 -779h47l461 779h512l-181 -1012h-305l137 778h-43l-473 -778h-350l-198 778h-43l-138 -778h-305z" />
<glyph unicode="&#x43d;" horiz-adv-x="1583" d="M16 0l179 1012h340l-62 -342h678l61 342h340l-180 -1012h-340l78 436h-678l-76 -436h-340z" />
<glyph unicode="&#x43e;" horiz-adv-x="1576" d="M78 317q0 24 8 82l37 211q20 114 83.5 204t176 146t256.5 56h473q188 0 284.5 -89t96.5 -235q0 -24 -8 -82l-39 -215q-32 -178 -166.5 -286.5t-345.5 -108.5h-475q-184 0 -282.5 85.5t-98.5 231.5zM424 373q0 -72 50 -106t153 -34h231q114 0 174.5 44.5t79.5 144.5 l29 162q4 32 4 45q0 72 -47.5 112.5t-141.5 40.5h-231q-232 0 -266 -196l-31 -166q-4 -24 -4 -47z" />
<glyph unicode="&#x43f;" horiz-adv-x="1583" d="M14 0l181 1012h1357l-180 -1012h-340l137 778h-677l-138 -778h-340z" />
<glyph unicode="&#x440;" horiz-adv-x="1564" d="M-25 -410l250 1422h340l-20 -121q32 26 56.5 42.5t64.5 37t88.5 31t103.5 10.5h307q187 0 284 -76t97 -223q0 -51 -8 -95l-39 -221q-31 -175 -163 -286t-349 -111h-305q-103 0 -174.5 43t-95.5 96l-97 -549h-340zM467 391q0 -63 51 -110.5t152 -47.5h229q123 0 187 47.5 t79 143.5l29 160q4 24 4 43q0 74 -47.5 112.5t-155.5 38.5h-229q-106 0 -179.5 -55t-88.5 -137q-31 -163 -31 -195z" />
<glyph unicode="&#x441;" horiz-adv-x="1482" d="M43 301q0 37 6 74l43 243q31 183 159 290.5t329 107.5h460q213 0 309.5 -60t96.5 -198q0 -37 -10 -99h-340q4 20 4 43q0 41 -29 60.5t-98 19.5h-322q-92 0 -150 -51.5t-75 -146.5q-35 -204 -35 -211q0 -61 39.5 -100.5t112.5 -39.5h327q92 0 126 28.5t48 105.5h340 q-17 -96 -47 -160t-87.5 -113t-150 -71.5t-227.5 -22.5h-483q-168 0 -257 84t-89 217z" />
<glyph unicode="&#x442;" horiz-adv-x="1396" d="M92 778l43 234h1315l-43 -234h-487l-138 -778h-340l138 778h-488z" />
<glyph unicode="&#x443;" horiz-adv-x="1400" d="M172 -432l41 233h47q91 0 144 36t133 163h-91l-251 1012h317l154 -729h39l466 729h328l-655 -1010q-67 -103 -108.5 -163t-90.5 -115t-85.5 -80.5t-91 -45.5t-110 -25t-139.5 -5h-47z" />
<glyph unicode="&#x444;" horiz-adv-x="2365" d="M74 317q0 26 8 84l39 222q33 192 164.5 290.5t347.5 98.5h174q72 0 129.5 -20t84 -41.5t58.5 -55.5l92 526h340l-94 -530q33 26 58 42.5t65.5 37t89 31t103.5 10.5h174q186 0 283.5 -76.5t97.5 -224.5q0 -43 -9 -93l-38 -221q-31 -175 -164 -286t-351 -111h-172 q-103 0 -174.5 43t-95.5 96l-96 -549h-340l98 553q-42 -53 -130.5 -98t-190.5 -45h-170q-190 0 -285.5 86.5t-95.5 230.5zM422 375q0 -72 50.5 -107t156.5 -35h112q111 0 175 49.5t79 143.5l29 164q4 28 4 41q0 71 -48 109t-144 38h-113q-121 0 -186 -46t-82 -140l-29 -170 q-4 -32 -4 -47zM1331 377q0 -144 193 -144h112q121 0 186.5 47t82.5 144l28 164q4 32 4 45q0 145 -206 145h-113q-110 0 -174.5 -50t-79.5 -140l-29 -164q-4 -32 -4 -47z" />
<glyph unicode="&#x445;" horiz-adv-x="1419" d="M-41 0l543 528l-322 484h383l193 -307l295 307h383l-494 -484l354 -528h-379l-225 358l-352 -358h-379z" />
<glyph unicode="&#x446;" horiz-adv-x="1677" d="M43 0l178 1012h340l-137 -779h678l137 779h340l-137 -779h143l-96 -538h-311l55 305h-1190z" />
<glyph unicode="&#x447;" horiz-adv-x="1519" d="M145 690q0 33 11 101l39 221h340l-29 -154q-8 -41 -8 -84q0 -88 48.5 -127t155.5 -39h107q124 0 183.5 23.5t105.5 83.5l53 297h340l-180 -1012h-340l86 485q-67 -65 -139 -87.5t-173 -22.5h-213q-191 0 -289 81.5t-98 233.5z" />
<glyph unicode="&#x448;" horiz-adv-x="2357" d="M27 0l180 1012h340l-137 -779h546l138 779h340l-138 -779h547l137 779h340l-180 -1012h-2113z" />
<glyph unicode="&#x449;" horiz-adv-x="2414" d="M55 0l178 1012h340l-137 -779h547l137 779h340l-137 -779h547l137 779h340l-137 -779h143l-96 -538h-305l55 305h-1952z" />
<glyph unicode="&#x44a;" horiz-adv-x="1865" d="M78 801l39 211h712l-65 -363h600q198 0 283.5 -52t85.5 -153q0 -34 -27 -186q-23 -128 -125 -193t-262 -65h-1010l142 801h-373zM688 211h516q30 0 50 1.5t48 9t45 22t29.5 42.5t12.5 68q0 44 -30.5 64t-115.5 20h-516z" />
<glyph unicode="&#x44b;" horiz-adv-x="2281" d="M25 0l180 1012h340l-66 -363h600q198 0 283.5 -52t85.5 -153q0 -34 -27 -186q-23 -128 -125 -193t-262 -65h-1009zM403 211h517q30 0 49.5 1.5t48 9t45 22t29 42.5t12.5 68q0 44 -30.5 64t-115.5 20h-516zM1708 0l178 1012h340l-178 -1012h-340z" />
<glyph unicode="&#x44c;" horiz-adv-x="1581" d="M25 0l180 1012h340l-66 -363h600q198 0 283.5 -52t85.5 -153q0 -34 -27 -186q-23 -128 -125 -193t-262 -65h-1009zM403 211h517q30 0 49.5 1.5t48 9t45 22t29 42.5t12.5 68q0 44 -30.5 64t-115.5 20h-516z" />
<glyph unicode="&#x44d;" horiz-adv-x="1482" d="M35 246q0 53 12 121h340q-8 -41 -8 -74q0 -46 27.5 -64t99.5 -18h328q88 0 149 57t70 162h-557l34 188h557q5 30 5 48q0 139 -160 139h-307q-89 0 -130.5 -30.5t-54.5 -108.5h-340q34 197 159 273.5t378 76.5h442q357 0 357 -299q0 -43 -9 -92l-43 -250 q-28 -160 -155.5 -267.5t-319.5 -107.5h-483q-217 0 -304 59t-87 187z" />
<glyph unicode="&#x44e;" horiz-adv-x="2226" d="M25 0l178 1012h340l-64 -353h301q26 148 162.5 250.5t345.5 102.5h475q187 0 283 -85t96 -229q0 -36 -8 -86l-37 -213q-31 -172 -167.5 -285.5t-344.5 -113.5h-475q-184 0 -281.5 89t-97.5 243q0 50 8 94h-301l-73 -426h-340zM1075 375q0 -142 203 -142h231 q114 0 173.5 45.5t78.5 145.5l29 162q4 32 4 45q0 147 -190 147h-232q-119 0 -183 -46t-81 -144l-29 -166q-4 -32 -4 -47z" />
<glyph unicode="&#x44f;" horiz-adv-x="1581" d="M-4 0l424 362q-135 0 -212 59.5t-77 160.5q0 30 27 174q24 128 125.5 192t261.5 64h1009l-180 -1012h-340l66 362h-289l-397 -362h-418zM473 657q0 -43 31.5 -63.5t116.5 -20.5h516l39 228h-517q-97 0 -141.5 -31.5t-44.5 -112.5z" />
<glyph unicode="&#x451;" horiz-adv-x="1429" d="M0 301q0 45 8 86l45 256q12 70 48 134t94.5 118.5t148.5 87.5t199 33h483q102 0 176 -25t115.5 -69.5t60.5 -99t19 -120.5q0 -43 -41 -270h-1002q-12 -71 -12 -98q0 -56 29.5 -89.5t105.5 -33.5h393q123 0 144 121h325q-11 -57 -30.5 -103.5t-56.5 -90t-89 -73 t-130.5 -47.5t-178.5 -18h-498q-178 0 -267 81.5t-89 219.5zM317 1141l50 282h340l-50 -282h-340zM389 621h676q4 32 4 47q0 137 -162 137h-313q-93 0 -142.5 -51t-62.5 -133zM786 1141l50 282h340l-50 -282h-340z" />
<glyph unicode="&#x454;" horiz-adv-x="1482" d="M43 301q0 37 6 74l43 243q31 182 159.5 290t330.5 108h442q214 0 310 -56.5t96 -185.5q0 -38 -11 -108h-323q8 50 8 63q0 35 -30 55.5t-111 20.5h-308q-92 0 -150 -47t-73 -140h557l-35 -188h-557q-10 -57 -10 -82q0 -59 39.5 -98t112.5 -39h327q93 0 133.5 25.5 t51.5 82.5l8 48h323l-6 -31q-15 -85 -43.5 -143t-84.5 -104t-149 -67.5t-227 -21.5h-483q-168 0 -257 84t-89 217z" />
<glyph unicode="&#x455;" horiz-adv-x="1892" d="M121 0l59 340h340l-59 -340h-340zM725 0l59 340h340l-59 -340h-340zM1329 0l60 340h340l-60 -340h-340z" />
<glyph unicode="&#x456;" horiz-adv-x="610" d="M18 0l179 1012h340l-179 -1012h-340zM219 1139l49 282h340l-49 -282h-340z" />
<glyph unicode="&#x457;" horiz-adv-x="692" d="M27 1139l49 282h340l-49 -282h-340zM47 0l178 1012h340l-178 -1012h-340zM496 1139l49 282h340l-49 -282h-340z" />
<glyph unicode="&#x458;" horiz-adv-x="1064" d="M82 520l49 283h836l-49 -283h-836zM246 59l59 340h340l-59 -340h-340zM399 922l60 340h340l-60 -340h-340z" />
<glyph unicode="&#x45e;" horiz-adv-x="1400" d="M135 -432l41 233h47q91 0 144 36t133 163h-90l-252 1012h317l156 -729h39l465 729h327l-653 -1010q-67 -103 -109 -163t-91 -115t-86 -80.5t-91.5 -45.5t-110 -25t-139.5 -5h-47zM496 1331q0 34 10 92h223q0 -82 36 -112.5t103 -30.5q26 0 46 2t45.5 10.5t43 23.5 t32.5 42t22 65h223q-31 -170 -131 -239.5t-311 -69.5q-182 0 -262 50t-80 167z" />
<glyph unicode="&#x490;" horiz-adv-x="1892" d="M170 1421h414l385 -641l626 641h387l-768 -796h240l-31 -164h-342l-16 -96h342l-29 -164h-342l-35 -201h-339l34 201h-340l29 164h340l16 96h-340l31 164h234z" />
<glyph unicode="&#x491;" horiz-adv-x="577" d="M16 1212l410 314l96 -137l-428 -256z" />
<glyph unicode="&#x2000;" horiz-adv-x="917" />
<glyph unicode="&#x2001;" horiz-adv-x="1835" />
<glyph unicode="&#x2002;" horiz-adv-x="917" />
<glyph unicode="&#x2003;" horiz-adv-x="1835" />
<glyph unicode="&#x2004;" horiz-adv-x="611" />
<glyph unicode="&#x2005;" horiz-adv-x="458" />
<glyph unicode="&#x2006;" horiz-adv-x="305" />
<glyph unicode="&#x2007;" horiz-adv-x="305" />
<glyph unicode="&#x2008;" horiz-adv-x="229" />
<glyph unicode="&#x2009;" horiz-adv-x="367" />
<glyph unicode="&#x200a;" horiz-adv-x="101" />
<glyph unicode="&#x2010;" horiz-adv-x="1101" d="M113 520l49 283h835l-49 -283h-835z" />
<glyph unicode="&#x2011;" horiz-adv-x="1101" d="M113 520l49 283h835l-49 -283h-835z" />
<glyph unicode="&#x2012;" horiz-adv-x="1101" d="M113 520l49 283h835l-49 -283h-835z" />
<glyph unicode="&#x2013;" horiz-adv-x="1501" d="M113 520l49 283h1218l-49 -283h-1218z" />
<glyph unicode="&#x2014;" horiz-adv-x="2267" d="M115 522l49 283h1990l-49 -283h-1990z" />
<glyph unicode="&#x2018;" horiz-adv-x="591" d="M14 819l60 340q12 71 28.5 124t36 93t49 66t61 43t78.5 26t94 12t116 3l-35 -189q-81 0 -119.5 -24.5t-50.5 -89.5l-10 -64h92l-60 -340h-340z" />
<glyph unicode="&#x2019;" horiz-adv-x="647" d="M33 756l35 188q81 0 119.5 25t50.5 90l10 63h-92l59 340h340l-59 -340q-14 -83 -32.5 -141.5t-48 -100t-61.5 -65.5t-83.5 -37.5t-104 -17.5t-133.5 -4z" />
<glyph unicode="&#x201a;" horiz-adv-x="681" d="M31 -422l35 189q81 0 119.5 24.5t50.5 89.5l10 64h-92l59 340h340l-59 -340q-12 -71 -28.5 -124t-36 -93t-49 -66t-61 -43t-78.5 -26t-94 -12t-116 -3z" />
<glyph unicode="&#x201c;" horiz-adv-x="1128" d="M39 817l59 340q12 71 28.5 124t36 93t49 66t61 43t78.5 26t94 12t116 3l-35 -189q-81 0 -119.5 -24.5t-50.5 -89.5l-10 -64h92l-59 -340h-340zM594 817l59 340q12 71 28.5 124t36 93t49 66t61 43t78.5 26t94 12t116 3l-35 -189q-81 0 -119.5 -24.5t-50.5 -89.5l-10 -64 h92l-59 -340h-340z" />
<glyph unicode="&#x201d;" horiz-adv-x="1247" d="M98 756l35 188q81 0 119.5 25t50.5 90l10 63h-92l60 340h340l-60 -340q-14 -83 -32.5 -141.5t-48 -100t-61.5 -65.5t-83.5 -37.5t-104 -17.5t-133.5 -4zM653 756l35 188q81 0 119.5 25t50.5 90l10 63h-92l60 340h340l-60 -340q-14 -83 -32.5 -141.5t-48 -100t-61.5 -65.5 t-83.5 -37.5t-104 -17.5t-133.5 -4z" />
<glyph unicode="&#x201e;" horiz-adv-x="1155" d="M31 -422l35 189q81 0 119.5 24.5t50.5 89.5l10 64h-92l59 340h340l-59 -340q-12 -71 -28.5 -124t-36 -93t-49 -66t-61 -43t-78.5 -26t-94 -12t-116 -3zM549 -422l35 189q81 0 119.5 24.5t50.5 89.5l10 64h-92l59 340h340l-59 -340q-12 -71 -28.5 -124t-36 -93t-49 -66 t-61 -43t-78.5 -26t-94 -12t-116 -3z" />
<glyph unicode="&#x2022;" horiz-adv-x="978" d="M137 512q0 69 30 139t82 126.5t131 92t169 35.5q137 0 208.5 -76t71.5 -190q0 -93 -47 -182t-140 -150t-208 -61q-144 0 -220.5 76t-76.5 190z" />
<glyph unicode="&#x2026;" horiz-adv-x="1892" d="M121 0l59 340h340l-59 -340h-340zM725 0l59 340h340l-59 -340h-340zM1329 0l60 340h340l-60 -340h-340z" />
<glyph unicode="&#x202f;" horiz-adv-x="367" />
<glyph unicode="&#x2039;" horiz-adv-x="800" d="M31 516l18 102l633 455l96 -149l-497 -353l374 -348l-145 -153z" />
<glyph unicode="&#x203a;" horiz-adv-x="757" d="M-27 229l490 342l-365 344l150 150l461 -447l-19 -102l-618 -434z" />
<glyph unicode="&#x205f;" horiz-adv-x="458" />
<glyph unicode="&#x20ac;" horiz-adv-x="1761" d="M10 477l127 180h115q1 4 1.5 14t2 21t4.5 23q5 33 12 53h-211l127 178h136q264 494 925 494q164 0 292 -35t188 -78l-50 -287q-59 54 -178 94t-287 40q-214 0 -351 -65.5t-197 -162.5h880l-125 -178h-825q-4 -11 -12 -49q-6 -37 -6 -62h765l-126 -180h-625 q25 -94 141.5 -153.5t323.5 -59.5q154 0 291 41t219 98l-54 -294q-72 -40 -206.5 -74.5t-311.5 -34.5q-350 0 -539 122.5t-214 354.5h-232z" />
<glyph unicode="&#x2122;" horiz-adv-x="2390" d="M127 1593l29 164h903l-29 -164h-371l-118 -678h-164l119 678h-369zM987 915l148 842h208l269 -616l477 616h211l-148 -842h-163l116 666l-510 -666h-69l-260 656l-115 -656h-164z" />
<glyph unicode="&#x25fc;" horiz-adv-x="1013" d="M0 0v1014h1014v-1014h-1014z" />
</font>
</defs>
</svg>
